<mxfile host="Electron" modified="2024-07-04T20:19:59.545Z" agent="Mozilla/5.0 (Windows NT 10.0; Win64; x64) AppleWebKit/537.36 (KHTML, like Gecko) draw.io/24.6.1 Chrome/124.0.6367.207 Electron/30.0.6 Safari/537.36" etag="ADZY39ufs80fokcxoNKM" version="24.6.1" type="device">
  <diagram id="OylcVsRS-XCSKNIYDoVY" name="Page-1">
    <mxGraphModel dx="668" dy="453" grid="1" gridSize="10" guides="1" tooltips="1" connect="1" arrows="1" fold="1" page="1" pageScale="1" pageWidth="850" pageHeight="1100" math="0" shadow="0">
      <root>
        <mxCell id="0" />
        <mxCell id="1" parent="0" />
        <mxCell id="CCdBk-kMrde8lJJXCoQE-1" value="" style="rounded=1;whiteSpace=wrap;html=1;rotation=-90;strokeColor=#00CC00;arcSize=0;" parent="1" vertex="1">
          <mxGeometry x="380" y="180" width="360" height="160" as="geometry" />
        </mxCell>
        <mxCell id="CCdBk-kMrde8lJJXCoQE-4" value="" style="endArrow=none;html=1;rounded=0;strokeColor=#00CC00;" parent="1" edge="1">
          <mxGeometry width="50" height="50" relative="1" as="geometry">
            <mxPoint x="520" y="160" as="sourcePoint" />
            <mxPoint x="480" y="160" as="targetPoint" />
          </mxGeometry>
        </mxCell>
        <mxCell id="CCdBk-kMrde8lJJXCoQE-5" value="" style="endArrow=none;html=1;rounded=0;strokeColor=#00CC00;" parent="1" edge="1">
          <mxGeometry width="50" height="50" relative="1" as="geometry">
            <mxPoint x="520" y="199" as="sourcePoint" />
            <mxPoint x="480.16" y="199.07" as="targetPoint" />
          </mxGeometry>
        </mxCell>
        <mxCell id="CCdBk-kMrde8lJJXCoQE-6" value="" style="endArrow=none;html=1;rounded=0;strokeColor=#00CC00;" parent="1" edge="1">
          <mxGeometry width="50" height="50" relative="1" as="geometry">
            <mxPoint x="520" y="240" as="sourcePoint" />
            <mxPoint x="480.16" y="240.32" as="targetPoint" />
          </mxGeometry>
        </mxCell>
        <mxCell id="CCdBk-kMrde8lJJXCoQE-7" value="" style="endArrow=none;html=1;rounded=0;strokeColor=#00CC00;" parent="1" edge="1">
          <mxGeometry width="50" height="50" relative="1" as="geometry">
            <mxPoint x="520" y="280" as="sourcePoint" />
            <mxPoint x="480.16" y="280.04" as="targetPoint" />
          </mxGeometry>
        </mxCell>
        <mxCell id="CCdBk-kMrde8lJJXCoQE-8" value="" style="endArrow=none;html=1;rounded=0;strokeColor=#00CC00;" parent="1" edge="1">
          <mxGeometry width="50" height="50" relative="1" as="geometry">
            <mxPoint x="520" y="320" as="sourcePoint" />
            <mxPoint x="480.15999999999997" y="320.32" as="targetPoint" />
          </mxGeometry>
        </mxCell>
        <mxCell id="CCdBk-kMrde8lJJXCoQE-10" value="" style="endArrow=none;html=1;rounded=0;strokeColor=#00CC00;" parent="1" edge="1">
          <mxGeometry width="50" height="50" relative="1" as="geometry">
            <mxPoint x="519.8399999999999" y="400" as="sourcePoint" />
            <mxPoint x="479.99999999999994" y="400.32" as="targetPoint" />
          </mxGeometry>
        </mxCell>
        <mxCell id="CCdBk-kMrde8lJJXCoQE-11" value="" style="endArrow=none;html=1;rounded=0;entryX=1;entryY=0.5;entryDx=0;entryDy=0;exitX=0;exitY=0.5;exitDx=0;exitDy=0;" parent="1" source="CCdBk-kMrde8lJJXCoQE-1" target="CCdBk-kMrde8lJJXCoQE-1" edge="1">
          <mxGeometry width="50" height="50" relative="1" as="geometry">
            <mxPoint x="398.25" y="310" as="sourcePoint" />
            <mxPoint x="448.25" y="260" as="targetPoint" />
          </mxGeometry>
        </mxCell>
        <mxCell id="CCdBk-kMrde8lJJXCoQE-12" value="" style="endArrow=none;html=1;rounded=0;entryX=1;entryY=0.25;entryDx=0;entryDy=0;exitX=0;exitY=0.25;exitDx=0;exitDy=0;strokeColor=#00CC00;endSize=9;" parent="1" source="CCdBk-kMrde8lJJXCoQE-1" target="CCdBk-kMrde8lJJXCoQE-1" edge="1">
          <mxGeometry width="50" height="50" relative="1" as="geometry">
            <mxPoint x="398.25" y="310" as="sourcePoint" />
            <mxPoint x="448.25" y="260" as="targetPoint" />
          </mxGeometry>
        </mxCell>
        <mxCell id="CCdBk-kMrde8lJJXCoQE-13" value="" style="endArrow=none;html=1;rounded=0;entryX=1;entryY=0.75;entryDx=0;entryDy=0;exitX=0;exitY=0.75;exitDx=0;exitDy=0;strokeColor=#00CC00;" parent="1" source="CCdBk-kMrde8lJJXCoQE-1" target="CCdBk-kMrde8lJJXCoQE-1" edge="1">
          <mxGeometry width="50" height="50" relative="1" as="geometry">
            <mxPoint x="398.25" y="310" as="sourcePoint" />
            <mxPoint x="448.25" y="260" as="targetPoint" />
          </mxGeometry>
        </mxCell>
        <mxCell id="CCdBk-kMrde8lJJXCoQE-15" value="" style="endArrow=none;html=1;rounded=0;strokeColor=#00CC00;" parent="1" edge="1">
          <mxGeometry width="50" height="50" relative="1" as="geometry">
            <mxPoint x="520" y="360" as="sourcePoint" />
            <mxPoint x="480" y="360" as="targetPoint" />
          </mxGeometry>
        </mxCell>
        <mxCell id="CCdBk-kMrde8lJJXCoQE-24" value="" style="endArrow=none;html=1;rounded=0;strokeColor=#00CC00;" parent="1" edge="1">
          <mxGeometry width="50" height="50" relative="1" as="geometry">
            <mxPoint x="640.25" y="159.6" as="sourcePoint" />
            <mxPoint x="600.25" y="159.6" as="targetPoint" />
          </mxGeometry>
        </mxCell>
        <mxCell id="CCdBk-kMrde8lJJXCoQE-25" value="" style="endArrow=none;html=1;rounded=0;strokeColor=#00CC00;" parent="1" edge="1">
          <mxGeometry width="50" height="50" relative="1" as="geometry">
            <mxPoint x="640.25" y="198.6" as="sourcePoint" />
            <mxPoint x="600.25" y="198.66999999999993" as="targetPoint" />
          </mxGeometry>
        </mxCell>
        <mxCell id="CCdBk-kMrde8lJJXCoQE-26" value="" style="endArrow=none;html=1;rounded=0;strokeColor=#00CC00;" parent="1" edge="1">
          <mxGeometry width="50" height="50" relative="1" as="geometry">
            <mxPoint x="640.25" y="239.6" as="sourcePoint" />
            <mxPoint x="600.25" y="239.91999999999993" as="targetPoint" />
          </mxGeometry>
        </mxCell>
        <mxCell id="CCdBk-kMrde8lJJXCoQE-27" value="" style="endArrow=none;html=1;rounded=0;strokeColor=#00CC00;" parent="1" edge="1">
          <mxGeometry width="50" height="50" relative="1" as="geometry">
            <mxPoint x="640.25" y="279.6" as="sourcePoint" />
            <mxPoint x="600.25" y="279.64" as="targetPoint" />
          </mxGeometry>
        </mxCell>
        <mxCell id="CCdBk-kMrde8lJJXCoQE-28" value="" style="endArrow=none;html=1;rounded=0;strokeColor=#00CC00;" parent="1" edge="1">
          <mxGeometry width="50" height="50" relative="1" as="geometry">
            <mxPoint x="640.25" y="319.6" as="sourcePoint" />
            <mxPoint x="600.25" y="319.91999999999996" as="targetPoint" />
          </mxGeometry>
        </mxCell>
        <mxCell id="CCdBk-kMrde8lJJXCoQE-29" value="" style="endArrow=none;html=1;rounded=0;strokeColor=#00CC00;" parent="1" edge="1">
          <mxGeometry width="50" height="50" relative="1" as="geometry">
            <mxPoint x="640.25" y="399.6" as="sourcePoint" />
            <mxPoint x="600.25" y="399.91999999999996" as="targetPoint" />
          </mxGeometry>
        </mxCell>
        <mxCell id="CCdBk-kMrde8lJJXCoQE-30" value="" style="endArrow=none;html=1;rounded=0;entryX=0.25;entryY=0;entryDx=0;entryDy=0;strokeColor=#00CC00;" parent="1" edge="1">
          <mxGeometry width="50" height="50" relative="1" as="geometry">
            <mxPoint x="640.25" y="359.6" as="sourcePoint" />
            <mxPoint x="600.25" y="359.6" as="targetPoint" />
          </mxGeometry>
        </mxCell>
        <mxCell id="CCdBk-kMrde8lJJXCoQE-31" value="Angrignon" style="text;html=1;strokeColor=none;fillColor=none;align=center;verticalAlign=middle;whiteSpace=wrap;rounded=0;rotation=90;fontColor=#00CC00;fontStyle=1;fontFamily=Lucida Console;" parent="1" vertex="1">
          <mxGeometry x="540" y="260" width="90" height="30" as="geometry" />
        </mxCell>
        <mxCell id="CCdBk-kMrde8lJJXCoQE-32" value="Honor&lt;b style=&quot;text-align: left; background-color: rgb(255, 255, 255);&quot;&gt;&lt;font style=&quot;font-size: 12px;&quot;&gt;Ã©-Beaugrand&lt;/font&gt;&lt;/b&gt;" style="text;html=1;strokeColor=none;fillColor=none;align=center;verticalAlign=middle;whiteSpace=wrap;rounded=0;rotation=-90;fontColor=#00CC00;fontStyle=1;fontFamily=Lucida Console;" parent="1" vertex="1">
          <mxGeometry x="460" y="260" width="160" height="30" as="geometry" />
        </mxCell>
        <mxCell id="CCdBk-kMrde8lJJXCoQE-34" value="" style="endArrow=classic;html=1;rounded=0;fontFamily=Lucida Console;fontSize=12;fontColor=#00CC00;strokeColor=#00CC00;fontStyle=1" parent="1" edge="1">
          <mxGeometry width="50" height="50" relative="1" as="geometry">
            <mxPoint x="583.02" y="198.75" as="sourcePoint" />
            <mxPoint x="583.02" y="158.75" as="targetPoint" />
            <Array as="points" />
          </mxGeometry>
        </mxCell>
        <mxCell id="CCdBk-kMrde8lJJXCoQE-35" value="" style="endArrow=classic;html=1;rounded=0;fontFamily=Lucida Console;fontSize=12;fontColor=#00CC00;strokeColor=#00CC00;fontStyle=1" parent="1" edge="1">
          <mxGeometry width="50" height="50" relative="1" as="geometry">
            <mxPoint x="583.11" y="400" as="sourcePoint" />
            <mxPoint x="583.11" y="360" as="targetPoint" />
          </mxGeometry>
        </mxCell>
        <mxCell id="CCdBk-kMrde8lJJXCoQE-36" value="" style="endArrow=classic;html=1;rounded=0;fontFamily=Lucida Console;fontSize=12;fontColor=#00CC00;strokeColor=#00CC00;fontStyle=1" parent="1" edge="1">
          <mxGeometry width="50" height="50" relative="1" as="geometry">
            <mxPoint x="543.1" y="359.9999999999999" as="sourcePoint" />
            <mxPoint x="543" y="400" as="targetPoint" />
            <Array as="points" />
          </mxGeometry>
        </mxCell>
        <mxCell id="CCdBk-kMrde8lJJXCoQE-37" value="" style="endArrow=classic;html=1;rounded=0;fontFamily=Lucida Console;fontSize=12;fontColor=#00CC00;strokeColor=#00CC00;fontStyle=1" parent="1" edge="1">
          <mxGeometry width="50" height="50" relative="1" as="geometry">
            <mxPoint x="542.9100000000001" y="158.7499999999999" as="sourcePoint" />
            <mxPoint x="543.2" y="198.7499999999999" as="targetPoint" />
          </mxGeometry>
        </mxCell>
        <mxCell id="JMoQ618bNgeiEcejHzmU-6" value="" style="text;html=1;strokeColor=#d6b656;fillColor=#FFFF66;align=center;verticalAlign=middle;whiteSpace=wrap;rounded=1;fontFamily=Lucida Console;fontSize=7;fontColor=#00CC00;glass=0;sketch=0;arcSize=0;" parent="1" vertex="1">
          <mxGeometry x="480" y="240" width="40" height="40" as="geometry" />
        </mxCell>
        <mxCell id="-S2LpZ2Q7ccBmGWUPwFg-1" value="" style="endArrow=none;html=1;rounded=0;strokeColor=#00CC00;" parent="1" edge="1">
          <mxGeometry width="50" height="50" relative="1" as="geometry">
            <mxPoint x="520" y="119.71000000000001" as="sourcePoint" />
            <mxPoint x="480" y="119.71000000000001" as="targetPoint" />
          </mxGeometry>
        </mxCell>
        <mxCell id="-S2LpZ2Q7ccBmGWUPwFg-4" value="" style="endArrow=none;html=1;rounded=0;strokeColor=#00CC00;" parent="1" edge="1">
          <mxGeometry width="50" height="50" relative="1" as="geometry">
            <mxPoint x="640" y="119.71000000000002" as="sourcePoint" />
            <mxPoint x="600.25" y="119.71000000000002" as="targetPoint" />
          </mxGeometry>
        </mxCell>
        <mxCell id="-S2LpZ2Q7ccBmGWUPwFg-9" value="" style="text;html=1;strokeColor=#D6B656;fillColor=#FFFF66;align=center;verticalAlign=middle;whiteSpace=wrap;rounded=1;fontFamily=Lucida Console;fontSize=7;fontColor=#00CC00;glass=0;sketch=0;arcSize=0;" parent="1" vertex="1">
          <mxGeometry x="600" y="240" width="40" height="40" as="geometry" />
        </mxCell>
        <mxCell id="-S2LpZ2Q7ccBmGWUPwFg-10" value="" style="text;html=1;strokeColor=none;fillColor=none;align=center;verticalAlign=middle;whiteSpace=wrap;rounded=1;fontFamily=Lucida Console;fontSize=7;fontColor=#00CC00;glass=0;sketch=0;arcSize=0;" parent="1" vertex="1">
          <mxGeometry x="600" y="80" width="40" height="40" as="geometry" />
        </mxCell>
        <mxCell id="-S2LpZ2Q7ccBmGWUPwFg-11" value="" style="text;html=1;strokeColor=#D6B656;fillColor=#FFFF66;align=center;verticalAlign=middle;whiteSpace=wrap;rounded=1;fontFamily=Lucida Console;fontSize=7;fontColor=#00CC00;glass=0;sketch=0;arcSize=0;" parent="1" vertex="1">
          <mxGeometry x="480" y="200" width="40" height="40" as="geometry" />
        </mxCell>
        <mxCell id="-S2LpZ2Q7ccBmGWUPwFg-13" value="" style="text;html=1;strokeColor=#D6B656;fillColor=#FFFF66;align=center;verticalAlign=middle;whiteSpace=wrap;rounded=1;fontFamily=Lucida Console;fontSize=7;fontColor=#00CC00;glass=0;sketch=0;arcSize=0;" parent="1" vertex="1">
          <mxGeometry x="600" y="200" width="40" height="40" as="geometry" />
        </mxCell>
        <mxCell id="-S2LpZ2Q7ccBmGWUPwFg-14" value="" style="text;html=1;strokeColor=#D6B656;fillColor=#FFFF66;align=center;verticalAlign=middle;whiteSpace=wrap;rounded=1;fontFamily=Lucida Console;fontSize=7;fontColor=#00CC00;glass=0;sketch=0;arcSize=0;" parent="1" vertex="1">
          <mxGeometry x="600" y="160" width="40" height="40" as="geometry" />
        </mxCell>
        <mxCell id="-S2LpZ2Q7ccBmGWUPwFg-23" value="" style="text;html=1;strokeColor=#D6B656;fillColor=#FFFF66;align=center;verticalAlign=middle;whiteSpace=wrap;rounded=1;fontFamily=Lucida Console;fontSize=7;fontColor=#00CC00;glass=0;sketch=0;arcSize=0;" parent="1" vertex="1">
          <mxGeometry x="480" y="160" width="40" height="40" as="geometry" />
        </mxCell>
      </root>
    </mxGraphModel>
  </diagram>
</mxfile>
